<?xml version="1.0" standalone="no"?>
<!DOCTYPE svg PUBLIC "-//W3C//DTD SVG 20010904//EN"
 "http://www.w3.org/TR/2001/REC-SVG-20010904/DTD/svg10.dtd">
<svg version="1.0" xmlns="http://www.w3.org/2000/svg"
 width="500.000000pt" height="500.000000pt" viewBox="0 0 500.000000 500.000000"
 preserveAspectRatio="xMidYMid meet">

<g transform="translate(0.000000,500.000000) scale(0.100000,-0.100000)"
fill="#000000" stroke="none">
<path d="M1740 3590 l0 -750 155 0 155 0 0 177 0 178 178 -178 177 -177 200 0
200 0 -232 233 -232 232 205 213 206 212 -198 0 -199 0 -152 -152 -153 -153 0
458 0 457 -155 0 -155 0 0 -750z"/>
<path d="M1173 3745 c-79 -17 -157 -59 -194 -105 -66 -79 -76 -217 -22 -294
36 -52 130 -116 222 -150 117 -45 149 -88 100 -132 -44 -40 -159 -16 -266 56
l-31 21 -61 -102 c-67 -110 -67 -111 -6 -149 161 -100 474 -98 607 3 65 50 99
125 100 220 0 147 -71 223 -275 293 -125 42 -151 66 -123 109 15 23 23 25 89
25 53 0 87 -7 132 -25 33 -14 61 -25 62 -25 2 0 25 45 53 100 l50 101 -45 19
c-109 47 -271 61 -392 35z"/>
<path d="M3165 3743 c-194 -41 -345 -179 -385 -352 -8 -33 -11 -88 -8 -143 5
-77 11 -100 42 -163 61 -123 174 -211 321 -250 80 -22 260 -22 339 0 299 80
447 386 315 653 -100 203 -364 311 -624 255z m235 -268 c64 -34 110 -112 110
-190 0 -121 -85 -205 -208 -205 -78 0 -137 31 -175 92 -39 63 -40 159 -3 223
27 46 77 83 130 96 38 10 112 2 146 -16z"/>
<path d="M1427 2499 c-48 -11 -112 -44 -159 -81 l-38 -30 0 46 0 46 -155 0
-155 0 0 -670 0 -670 155 0 155 0 0 266 0 266 35 -26 c118 -91 309 -106 451
-36 244 119 327 467 168 707 -99 148 -285 223 -457 182z m103 -274 c15 -8 41
-30 57 -49 89 -101 61 -261 -57 -324 -63 -33 -160 -29 -217 11 -72 50 -105
142 -82 232 15 61 78 127 135 143 46 13 126 7 164 -13z"/>
<path d="M2395 2499 c-176 -36 -337 -194 -374 -367 -44 -208 62 -418 260 -516
158 -77 373 -66 533 28 42 25 146 129 146 147 0 5 -49 33 -109 63 l-109 55
-18 -21 c-11 -11 -39 -32 -64 -47 -39 -22 -56 -26 -126 -26 -71 0 -85 3 -122
27 -49 33 -68 60 -77 111 l-7 37 327 0 328 0 -6 83 c-7 99 -26 164 -69 237
-41 69 -133 140 -219 169 -75 25 -219 35 -294 20z m195 -211 c33 -17 51 -35
67 -67 12 -24 20 -48 17 -52 -3 -5 -79 -9 -170 -9 -182 0 -180 -1 -148 65 37
78 147 107 234 63z"/>
<path d="M3265 1767 c-60 -28 -118 -90 -136 -143 -7 -22 -13 -64 -13 -94 0
-73 19 -124 62 -172 49 -54 104 -80 182 -86 116 -8 204 34 257 125 25 43 28
58 28 133 0 92 -13 129 -64 183 -45 49 -98 70 -186 74 -69 3 -87 1 -130 -20z"/>
</g>
</svg>
